<?xml version="1.0" encoding="UTF-8" standalone="no"?>
<!DOCTYPE svg PUBLIC "-//W3C//DTD SVG 1.1//EN"
 "http://www.w3.org/Graphics/SVG/1.1/DTD/svg11.dtd">
<!-- Generated by graphviz version 14.0.0 (0)
 -->
<!-- Pages: 1 -->
<svg width="355pt" height="206pt"
 viewBox="0.00 0.00 355.00 206.00" xmlns="http://www.w3.org/2000/svg" xmlns:xlink="http://www.w3.org/1999/xlink">
<g id="graph0" class="graph" transform="scale(1 1) rotate(0) translate(4 202)">
<polygon fill="white" stroke="none" points="-4,4 -4,-202 351.19,-202 351.19,4 -4,4"/>
<!-- x_1 -->
<g id="node1" class="node">
<title>x_1</title>
<ellipse fill="orange" stroke="orange" cx="28.06" cy="-153" rx="28.06" ry="18"/>
<text xml:space="preserve" text-anchor="middle" x="28.06" y="-148.32" font-family="Times,serif" font-size="14.00">x_1</text>
</g>
<!-- x_2 -->
<g id="node2" class="node">
<title>x_2</title>
<ellipse fill="orange" stroke="orange" cx="28.06" cy="-99" rx="28.06" ry="18"/>
<text xml:space="preserve" text-anchor="middle" x="28.06" y="-94.33" font-family="Times,serif" font-size="14.00">x_2</text>
</g>
<!-- x_1&#45;&gt;x_2 -->
<!-- f1_1 -->
<g id="node4" class="node">
<title>f1_1</title>
<ellipse fill="grey" stroke="grey" cx="124.39" cy="-180" rx="32.27" ry="18"/>
<text xml:space="preserve" text-anchor="middle" x="124.39" y="-175.32" font-family="Times,serif" font-size="14.00">f1_1</text>
</g>
<!-- x_1&#45;&gt;f1_1 -->
<g id="edge1" class="edge">
<title>x_1&#45;&gt;f1_1</title>
<path fill="none" stroke="black" d="M54.34,-160.24C63.46,-162.85 73.98,-165.86 84.02,-168.73"/>
<polygon fill="black" stroke="black" points="83.01,-172.08 93.59,-171.47 84.94,-165.35 83.01,-172.08"/>
</g>
<!-- f1_2 -->
<g id="node5" class="node">
<title>f1_2</title>
<ellipse fill="grey" stroke="grey" cx="124.39" cy="-126" rx="32.27" ry="18"/>
<text xml:space="preserve" text-anchor="middle" x="124.39" y="-121.33" font-family="Times,serif" font-size="14.00">f1_2</text>
</g>
<!-- x_1&#45;&gt;f1_2 -->
<g id="edge2" class="edge">
<title>x_1&#45;&gt;f1_2</title>
<path fill="none" stroke="black" d="M54.34,-145.76C63.46,-143.15 73.98,-140.14 84.02,-137.27"/>
<polygon fill="black" stroke="black" points="84.94,-140.65 93.59,-134.53 83.01,-133.92 84.94,-140.65"/>
</g>
<!-- f1_3 -->
<g id="node6" class="node">
<title>f1_3</title>
<ellipse fill="grey" stroke="grey" cx="124.39" cy="-72" rx="32.27" ry="18"/>
<text xml:space="preserve" text-anchor="middle" x="124.39" y="-67.33" font-family="Times,serif" font-size="14.00">f1_3</text>
</g>
<!-- x_1&#45;&gt;f1_3 -->
<g id="edge3" class="edge">
<title>x_1&#45;&gt;f1_3</title>
<path fill="none" stroke="black" d="M45.49,-138.89C59.74,-126.65 80.62,-108.72 97.18,-94.5"/>
<polygon fill="black" stroke="black" points="99.41,-97.2 104.72,-88.03 94.85,-91.89 99.41,-97.2"/>
</g>
<!-- f1_4 -->
<g id="node7" class="node">
<title>f1_4</title>
<ellipse fill="grey" stroke="grey" cx="124.39" cy="-18" rx="32.27" ry="18"/>
<text xml:space="preserve" text-anchor="middle" x="124.39" y="-13.32" font-family="Times,serif" font-size="14.00">f1_4</text>
</g>
<!-- x_1&#45;&gt;f1_4 -->
<g id="edge4" class="edge">
<title>x_1&#45;&gt;f1_4</title>
<path fill="none" stroke="black" d="M40.63,-136.45C56.75,-113.37 86.14,-71.3 105.21,-44.01"/>
<polygon fill="black" stroke="black" points="108,-46.13 110.86,-35.93 102.26,-42.12 108,-46.13"/>
</g>
<!-- x_3 -->
<g id="node3" class="node">
<title>x_3</title>
<ellipse fill="orange" stroke="orange" cx="28.06" cy="-45" rx="28.06" ry="18"/>
<text xml:space="preserve" text-anchor="middle" x="28.06" y="-40.33" font-family="Times,serif" font-size="14.00">x_3</text>
</g>
<!-- x_2&#45;&gt;x_3 -->
<!-- x_2&#45;&gt;f1_1 -->
<g id="edge5" class="edge">
<title>x_2&#45;&gt;f1_1</title>
<path fill="none" stroke="black" d="M45.49,-113.11C59.74,-125.35 80.62,-143.28 97.18,-157.5"/>
<polygon fill="black" stroke="black" points="94.85,-160.11 104.72,-163.97 99.41,-154.8 94.85,-160.11"/>
</g>
<!-- x_2&#45;&gt;f1_2 -->
<g id="edge6" class="edge">
<title>x_2&#45;&gt;f1_2</title>
<path fill="none" stroke="black" d="M54.34,-106.24C63.46,-108.85 73.98,-111.86 84.02,-114.73"/>
<polygon fill="black" stroke="black" points="83.01,-118.08 93.59,-117.47 84.94,-111.35 83.01,-118.08"/>
</g>
<!-- x_2&#45;&gt;f1_3 -->
<g id="edge7" class="edge">
<title>x_2&#45;&gt;f1_3</title>
<path fill="none" stroke="black" d="M54.34,-91.76C63.46,-89.15 73.98,-86.14 84.02,-83.27"/>
<polygon fill="black" stroke="black" points="84.94,-86.65 93.59,-80.53 83.01,-79.92 84.94,-86.65"/>
</g>
<!-- x_2&#45;&gt;f1_4 -->
<g id="edge8" class="edge">
<title>x_2&#45;&gt;f1_4</title>
<path fill="none" stroke="black" d="M45.49,-84.89C59.74,-72.65 80.62,-54.72 97.18,-40.5"/>
<polygon fill="black" stroke="black" points="99.41,-43.2 104.72,-34.03 94.85,-37.89 99.41,-43.2"/>
</g>
<!-- x_3&#45;&gt;f1_1 -->
<g id="edge9" class="edge">
<title>x_3&#45;&gt;f1_1</title>
<path fill="none" stroke="black" d="M40.63,-61.55C56.75,-84.63 86.14,-126.7 105.21,-153.99"/>
<polygon fill="black" stroke="black" points="102.26,-155.88 110.86,-162.07 108,-151.87 102.26,-155.88"/>
</g>
<!-- x_3&#45;&gt;f1_2 -->
<g id="edge10" class="edge">
<title>x_3&#45;&gt;f1_2</title>
<path fill="none" stroke="black" d="M45.49,-59.11C59.74,-71.35 80.62,-89.28 97.18,-103.5"/>
<polygon fill="black" stroke="black" points="94.85,-106.11 104.72,-109.97 99.41,-100.8 94.85,-106.11"/>
</g>
<!-- x_3&#45;&gt;f1_3 -->
<g id="edge11" class="edge">
<title>x_3&#45;&gt;f1_3</title>
<path fill="none" stroke="black" d="M54.34,-52.24C63.46,-54.85 73.98,-57.86 84.02,-60.73"/>
<polygon fill="black" stroke="black" points="83.01,-64.08 93.59,-63.47 84.94,-57.35 83.01,-64.08"/>
</g>
<!-- x_3&#45;&gt;f1_4 -->
<g id="edge12" class="edge">
<title>x_3&#45;&gt;f1_4</title>
<path fill="none" stroke="black" d="M54.34,-37.76C63.46,-35.15 73.98,-32.14 84.02,-29.27"/>
<polygon fill="black" stroke="black" points="84.94,-32.65 93.59,-26.53 83.01,-25.92 84.94,-32.65"/>
</g>
<!-- f1_1&#45;&gt;f1_2 -->
<!-- f2_1 -->
<g id="node8" class="node">
<title>f2_1</title>
<ellipse fill="grey" stroke="grey" cx="224.92" cy="-180" rx="32.27" ry="18"/>
<text xml:space="preserve" text-anchor="middle" x="224.92" y="-175.32" font-family="Times,serif" font-size="14.00">f2_1</text>
</g>
<!-- f1_1&#45;&gt;f2_1 -->
<g id="edge13" class="edge">
<title>f1_1&#45;&gt;f2_1</title>
<path fill="none" stroke="black" d="M157.11,-180C164.67,-180 172.86,-180 180.83,-180"/>
<polygon fill="black" stroke="black" points="180.75,-183.5 190.75,-180 180.75,-176.5 180.75,-183.5"/>
</g>
<!-- f2_2 -->
<g id="node9" class="node">
<title>f2_2</title>
<ellipse fill="grey" stroke="grey" cx="224.92" cy="-126" rx="32.27" ry="18"/>
<text xml:space="preserve" text-anchor="middle" x="224.92" y="-121.33" font-family="Times,serif" font-size="14.00">f2_2</text>
</g>
<!-- f1_1&#45;&gt;f2_2 -->
<g id="edge14" class="edge">
<title>f1_1&#45;&gt;f2_2</title>
<path fill="none" stroke="black" d="M148.24,-167.48C161.05,-160.46 177.24,-151.58 191.36,-143.85"/>
<polygon fill="black" stroke="black" points="192.78,-147.06 199.87,-139.18 189.41,-140.92 192.78,-147.06"/>
</g>
<!-- f2_3 -->
<g id="node10" class="node">
<title>f2_3</title>
<ellipse fill="grey" stroke="grey" cx="224.92" cy="-72" rx="32.27" ry="18"/>
<text xml:space="preserve" text-anchor="middle" x="224.92" y="-67.33" font-family="Times,serif" font-size="14.00">f2_3</text>
</g>
<!-- f1_1&#45;&gt;f2_3 -->
<g id="edge15" class="edge">
<title>f1_1&#45;&gt;f2_3</title>
<path fill="none" stroke="black" d="M139.93,-164.06C156.23,-146.2 182.85,-117.02 201.75,-96.3"/>
<polygon fill="black" stroke="black" points="204.15,-98.87 208.3,-89.12 198.98,-94.15 204.15,-98.87"/>
</g>
<!-- f2_4 -->
<g id="node11" class="node">
<title>f2_4</title>
<ellipse fill="grey" stroke="grey" cx="224.92" cy="-18" rx="32.27" ry="18"/>
<text xml:space="preserve" text-anchor="middle" x="224.92" y="-13.32" font-family="Times,serif" font-size="14.00">f2_4</text>
</g>
<!-- f1_1&#45;&gt;f2_4 -->
<g id="edge16" class="edge">
<title>f1_1&#45;&gt;f2_4</title>
<path fill="none" stroke="black" d="M135.75,-162.97C152.85,-134.85 187.14,-78.48 207.55,-44.92"/>
<polygon fill="black" stroke="black" points="210.41,-46.95 212.62,-36.58 204.43,-43.31 210.41,-46.95"/>
</g>
<!-- f1_2&#45;&gt;f1_3 -->
<!-- f1_2&#45;&gt;f2_1 -->
<g id="edge18" class="edge">
<title>f1_2&#45;&gt;f2_1</title>
<path fill="none" stroke="black" d="M148.24,-138.52C161.05,-145.54 177.24,-154.42 191.36,-162.15"/>
<polygon fill="black" stroke="black" points="189.41,-165.08 199.87,-166.82 192.78,-158.94 189.41,-165.08"/>
</g>
<!-- f1_2&#45;&gt;f2_2 -->
<g id="edge19" class="edge">
<title>f1_2&#45;&gt;f2_2</title>
<path fill="none" stroke="black" d="M157.11,-126C164.67,-126 172.86,-126 180.83,-126"/>
<polygon fill="black" stroke="black" points="180.75,-129.5 190.75,-126 180.75,-122.5 180.75,-129.5"/>
</g>
<!-- f1_2&#45;&gt;f2_3 -->
<g id="edge20" class="edge">
<title>f1_2&#45;&gt;f2_3</title>
<path fill="none" stroke="black" d="M148.24,-113.48C161.05,-106.46 177.24,-97.58 191.36,-89.85"/>
<polygon fill="black" stroke="black" points="192.78,-93.06 199.87,-85.18 189.41,-86.92 192.78,-93.06"/>
</g>
<!-- f1_2&#45;&gt;f2_4 -->
<g id="edge21" class="edge">
<title>f1_2&#45;&gt;f2_4</title>
<path fill="none" stroke="black" d="M139.93,-110.06C156.23,-92.2 182.85,-63.02 201.75,-42.3"/>
<polygon fill="black" stroke="black" points="204.15,-44.87 208.3,-35.12 198.98,-40.15 204.15,-44.87"/>
</g>
<!-- f1_3&#45;&gt;f1_4 -->
<!-- f1_3&#45;&gt;f2_1 -->
<g id="edge23" class="edge">
<title>f1_3&#45;&gt;f2_1</title>
<path fill="none" stroke="black" d="M139.93,-87.94C156.23,-105.8 182.85,-134.98 201.75,-155.7"/>
<polygon fill="black" stroke="black" points="198.98,-157.85 208.3,-162.88 204.15,-153.13 198.98,-157.85"/>
</g>
<!-- f1_3&#45;&gt;f2_2 -->
<g id="edge24" class="edge">
<title>f1_3&#45;&gt;f2_2</title>
<path fill="none" stroke="black" d="M148.24,-84.52C161.05,-91.54 177.24,-100.42 191.36,-108.15"/>
<polygon fill="black" stroke="black" points="189.41,-111.08 199.87,-112.82 192.78,-104.94 189.41,-111.08"/>
</g>
<!-- f1_3&#45;&gt;f2_3 -->
<g id="edge25" class="edge">
<title>f1_3&#45;&gt;f2_3</title>
<path fill="none" stroke="black" d="M157.11,-72C164.67,-72 172.86,-72 180.83,-72"/>
<polygon fill="black" stroke="black" points="180.75,-75.5 190.75,-72 180.75,-68.5 180.75,-75.5"/>
</g>
<!-- f1_3&#45;&gt;f2_4 -->
<g id="edge26" class="edge">
<title>f1_3&#45;&gt;f2_4</title>
<path fill="none" stroke="black" d="M148.24,-59.48C161.05,-52.46 177.24,-43.58 191.36,-35.85"/>
<polygon fill="black" stroke="black" points="192.78,-39.06 199.87,-31.18 189.41,-32.92 192.78,-39.06"/>
</g>
<!-- f1_4&#45;&gt;f2_1 -->
<g id="edge28" class="edge">
<title>f1_4&#45;&gt;f2_1</title>
<path fill="none" stroke="black" d="M135.75,-35.03C152.85,-63.15 187.14,-119.52 207.55,-153.08"/>
<polygon fill="black" stroke="black" points="204.43,-154.69 212.62,-161.42 210.41,-151.05 204.43,-154.69"/>
</g>
<!-- f1_4&#45;&gt;f2_2 -->
<g id="edge29" class="edge">
<title>f1_4&#45;&gt;f2_2</title>
<path fill="none" stroke="black" d="M139.93,-33.94C156.23,-51.8 182.85,-80.98 201.75,-101.7"/>
<polygon fill="black" stroke="black" points="198.98,-103.85 208.3,-108.88 204.15,-99.13 198.98,-103.85"/>
</g>
<!-- f1_4&#45;&gt;f2_3 -->
<g id="edge30" class="edge">
<title>f1_4&#45;&gt;f2_3</title>
<path fill="none" stroke="black" d="M148.24,-30.52C161.05,-37.54 177.24,-46.42 191.36,-54.15"/>
<polygon fill="black" stroke="black" points="189.41,-57.08 199.87,-58.82 192.78,-50.94 189.41,-57.08"/>
</g>
<!-- f1_4&#45;&gt;f2_4 -->
<g id="edge31" class="edge">
<title>f1_4&#45;&gt;f2_4</title>
<path fill="none" stroke="black" d="M157.11,-18C164.67,-18 172.86,-18 180.83,-18"/>
<polygon fill="black" stroke="black" points="180.75,-21.5 190.75,-18 180.75,-14.5 180.75,-21.5"/>
</g>
<!-- f2_1&#45;&gt;f2_2 -->
<!-- c -->
<g id="node12" class="node">
<title>c</title>
<ellipse fill="lightblue" stroke="lightblue" cx="320.19" cy="-99" rx="27" ry="18"/>
<text xml:space="preserve" text-anchor="middle" x="320.19" y="-94.33" font-family="Times,serif" font-size="14.00">c</text>
</g>
<!-- f2_1&#45;&gt;c -->
<g id="edge17" class="edge">
<title>f2_1&#45;&gt;c</title>
<path fill="none" stroke="black" d="M243.47,-164.76C257.89,-152.24 278.5,-134.34 294.58,-120.38"/>
<polygon fill="black" stroke="black" points="296.58,-123.28 301.83,-114.08 291.99,-117.99 296.58,-123.28"/>
</g>
<!-- f2_2&#45;&gt;f2_3 -->
<!-- f2_2&#45;&gt;c -->
<g id="edge22" class="edge">
<title>f2_2&#45;&gt;c</title>
<path fill="none" stroke="black" d="M254.16,-117.83C263.59,-115.1 274.21,-112.02 284.09,-109.16"/>
<polygon fill="black" stroke="black" points="284.75,-112.61 293.38,-106.47 282.8,-105.89 284.75,-112.61"/>
</g>
<!-- f2_3&#45;&gt;f2_4 -->
<!-- f2_3&#45;&gt;c -->
<g id="edge27" class="edge">
<title>f2_3&#45;&gt;c</title>
<path fill="none" stroke="black" d="M254.16,-80.17C263.59,-82.9 274.21,-85.98 284.09,-88.84"/>
<polygon fill="black" stroke="black" points="282.8,-92.11 293.38,-91.53 284.75,-85.39 282.8,-92.11"/>
</g>
<!-- f2_4&#45;&gt;c -->
<g id="edge32" class="edge">
<title>f2_4&#45;&gt;c</title>
<path fill="none" stroke="black" d="M243.47,-33.24C257.89,-45.76 278.5,-63.66 294.58,-77.62"/>
<polygon fill="black" stroke="black" points="291.99,-80.01 301.83,-83.92 296.58,-74.72 291.99,-80.01"/>
</g>
</g>
</svg>
